<?xml version="1.0" encoding="UTF-8"?><svg id="Layer_2" xmlns="http://www.w3.org/2000/svg" viewBox="0 0 762.64 442.45"><g id="Layer_1-2"><g><path d="M762.64,261.79c-4.9,18.1-11.1,36-14.4,54.5-3.2,18-6.6,36.5,.8,54.6,3.5,8.6,6.9,17.2,10.3,25.8-6.9,5.3-21.4,3.9-27.8-2.2-17.7-17.2-23-39-23.7-62.5-.6-21,4-41.5,6.1-62.2,.8-8.1-1.7-13.5-7.3-14.7-8-1.8-14,1.2-17,8.3-11.4,27.8-22.9,55.5-34.2,83.3-3,7.5-5.6,15.1-8.7,22.5-4.3,10.1-9.7,13.7-19.7,11.5-3.8-.8-7.1-4.5-10.3-7.3-6.6-5.6-10.8-10.8-7.5-21.5,11.6-37.5,21.2-75.7,32.5-113.4,4.8-16.1,13.9-21,30.1-17.5,4,.9,7.1,6.1,11.3,9.9,8.9-7.9,19.8-13.1,32.4-15.4,21.8-3.9,41,7.3,47.1,28.7,0,5.8,0,11.7,0,17.6Z"/><path d="M227.14,299.79c-3.5,1.1-6.5,1.9-9.4,3-15.9,5.9-31.4,14.1-47.8,17.4-23.3,4.7-47.2,6.7-71,8.2-16.5,1-33.3,.3-49.7-1.9-14.1-1.9-29-5.7-36.7-19.8-7-12.8-13.6-26.3-12.4-41.6,1.6-19.7,3-39.5,6.4-58.9,4.3-24.5,10-48.8,16-73C31.84,95.99,44.14,59.69,58.04,23.89c3.6-9.4,9.8-15.7,15.4-23,.9-1.2,6-1.2,7.1,.1,6.7,7.5,14.6,14.7,18.8,23.5,12.6,26.3,11.1,53.8,2.2,80.8-5.5,16.7-12.7,32.9-19.2,49.2-5.5,13.9-10.9,27.8-16.6,41.6-1.1,2.6-3.3,4.7-4.6,7.3-10.2,19.3-18,39.6-20.1,61.5-.9,9,2.4,17.5,14.1,16.9,13.4-.7,26.8-1.4,40.3-1.6,5.2-.1,10.4,1,15.6,1.6,1.9,.2,3.9,.7,5.8,.6,11.9-1,23.7-2.7,35.6-3,9.2-.2,18.5,.8,27.7,2,14.6,1.8,29.1,4.1,43.5,6.4,4.7,.8,6.6-1,7.5-5.4,3.7-18.7,7.8-37.3,11.2-56.1,.5-2.7-1.3-6.5-3.2-8.8-10.2-12.7-10.3-16.3,2.1-27,13.1-11.4,26.7-22.7,44.1-26.9,20.5-5,40.8-3.5,60.3,5,15.5,6.7,29.8,15.4,40,28.9,4.2,5.5,6,13.1,7.9,20,3.2,11.1,.4,22.1-5.7,31.1-5.8,8.6-13,17-21.4,23.1-13.5,9.9-28.4,18-42.9,26.5-4.3,2.5-9.3,4.7-14.2,5.3-5.1,.7-6.1,3.4-7,7.5-4.4,19.5-9.2,38.9-13.6,58.4-2.2,9.4-2.6,19.5-6.2,28.3-4.2,10.3-7.8,21.2-16.8,29.4-4.5,4.1-7.6,9.3-13.4,12.7-5.8,3.3-8.1,1-10.7-2.8-8.2-12.2-12.5-25.9-14.7-40.3-4.5-29.8-2.3-59.6,.1-89.4,.2-2.2,.1-4.4,.1-7.5Zm80.1-7.6c5.9-3.4,10.6-6.6,15.7-9,14.8-6.9,26.7-17.4,35.9-30.5,3.5-5,5.9-12.2,5.5-18.2-1.2-20.3-33.6-32.1-50.7-21-1.7,1.1-2.5,4.8-2.5,7.3-.1,11.4,.9,22.9,.3,34.3-.7,11.8-2.6,23.6-4.2,37.1Z"/><path d="M487.14,308.99c4.1,4.8,.7,9.1-1.3,13.8-2.5,5.9-4.5,12.1-6.6,18.2-1.8,5.1-3.3,10.2-5.4,15.2-1.7,4.1-3.8,8-5.8,11.9-3.7,7.2-7.6,14.3-11.3,21.5-1.7,3.3-2.8,7.1-5,10.1-7.2,9.8-14.2,19.9-22.4,28.8-4.1,4.5-10.2,7.7-16.1,9.8-16.1,5.9-32.3,5.7-48.1-1.7-3.5-1.7-7.5-2.5-10.7-4.6-8.1-5.7-14.8-12.4-11.7-24,.2,0,1-.4,1.4-.1,22.8,11.6,45.2,6.8,68.2-.5,20.1-6.4,29.4-20.4,35.7-39.1,10.6-32,15.8-65,21.4-98,.3-1.6,0-3.4,0-5.7-1.5,.6-3,.8-3.9,1.7-8.2,7.2-17.8,11.2-28.3,13.9-12.1,3.2-27.6-3.8-32.8-15.4-8.2-18.3-6.5-36.8,1.1-54.2,7.4-17,17.2-32.9,26.1-49.1,1.4-2.5,3.3-5.4,5.7-6.5,3.8-1.8,8.2-2.4,12.4-3.4,1,4.1,2.8,8.2,2.8,12.2,.1,19.6-13.6,34.7-18,52.8-2.6,10.8-4.4,21.9-6.5,32.8,.7,.4,1.5,.9,2.2,1.3,6.2-5.6,13.4-10.5,18.6-17,16.2-20.2,31.7-41,47.4-61.7,8.6-11.4,25.8-11,34.8,.5,6.2,7.8,6.8,15.8,5.8,25.6-1.7,17.6-7.2,33.7-13.6,49.7-1.6,3.9-5,7-7,10.8-6.3,12.6-12,25.6-18.6,38.1-2.2,4.3-6.5,7.8-10.5,12.3Z"/><path d="M607.44,335.99c-4,12.2-9.2,22.9-21.6,28.7-5.9,2.8-11.1,7.1-16.8,10.5-6.1,3.7-12.2,4.9-19.3,1.9-18.6-7.7-27.3-21.4-28.8-41.2-1.5-19.3,3-37.2,12.1-53.6,7.7-13.8,17.7-26.4,26.3-39.7,4.8-7.4,11.8-9.1,19.6-8.2,5.5,.7,14.5,12,14.5,18.9-.1,6.6-.9,13.6-3.3,19.8-7.8,19.9-13.7,40.2-15,61.7-.3,4.5,2.2,5,5.4,4.6,8.6-.9,17.3-2.1,26.9-3.4Z"/><path d="M581.04,164.49c16.5,2.1,19,5.6,17.7,17.9-1.3,12.8-3.2,17-12,19.1-5.8,1.4-11.2,1.7-15.9-3.7-6.4-7.3-9.3-15.6-5.3-24.2,2.9-6.1,8.9-10.3,15.5-9.1Z"/></g></g></svg>